<?xml version="1.0" encoding="UTF-8" standalone="no"?>
<svg
   viewBox="0 0 3178.5827 2245.0395"
   width="841mm"
   height="594mm"
   version="1.1"
   id="svg22"
   sodipodi:docname="finalprojclock.svg"
   xml:space="preserve"
   inkscape:version="1.2.1 (9c6d41e410, 2022-07-14)"
   xmlns:inkscape="http://www.inkscape.org/namespaces/inkscape"
   xmlns:sodipodi="http://sodipodi.sourceforge.net/DTD/sodipodi-0.dtd"
   xmlns="http://www.w3.org/2000/svg"
   xmlns:svg="http://www.w3.org/2000/svg"><sodipodi:namedview
     id="namedview24"
     pagecolor="#ffffff"
     bordercolor="#000000"
     borderopacity="0.25"
     inkscape:showpageshadow="2"
     inkscape:pageopacity="0.0"
     inkscape:pagecheckerboard="0"
     inkscape:deskcolor="#d1d1d1"
     showgrid="false"
     inkscape:zoom="2.1089996"
     inkscape:cx="272.87819"
     inkscape:cy="863.44255"
     inkscape:window-width="1920"
     inkscape:window-height="1017"
     inkscape:window-x="-8"
     inkscape:window-y="-8"
     inkscape:window-maximized="1"
     inkscape:current-layer="g310"
     inkscape:document-units="mm" /><desc
     id="desc2">clockside.dxf - scale = 1.000000, origin = (0.000000, 0.000000), method = manual</desc><defs
     id="defs16"><marker
       id="DistanceX"
       orient="auto"
       refX="0"
       refY="0"
       style="overflow:visible"><path
         d="M 3,-3 -3,3 M 0,-5 V 5"
         style="stroke:#000000;stroke-width:0.5"
         id="path4" /></marker><pattern
       id="Hatch"
       patternUnits="userSpaceOnUse"
       width="8"
       height="8"
       x="0"
       y="0"><path
         d="M8 4 l-4,4"
         stroke="#000000"
         stroke-width="0.25"
         linecap="square"
         id="path7" /><path
         d="M6 2 l-4,4"
         stroke="#000000"
         stroke-width="0.25"
         linecap="square"
         id="path9" /><path
         d="M4 0 l-4,4"
         stroke="#000000"
         stroke-width="0.25"
         linecap="square"
         id="path11" /></pattern><symbol
       id="*MODEL_SPACE" /><symbol
       id="*PAPER_SPACE" /><marker
       id="DistanceX-7"
       orient="auto"
       refX="0"
       refY="0"
       style="overflow:visible"><path
         d="M 3,-3 -3,3 M 0,-5 V 5"
         style="stroke:#000000;stroke-width:0.5"
         id="path4-6" /></marker><pattern
       id="Hatch-6"
       patternUnits="userSpaceOnUse"
       width="8"
       height="8"
       x="0"
       y="0"><path
         d="M8 4 l-4,4"
         stroke="#000000"
         stroke-width="0.25"
         linecap="square"
         id="path7-8" /><path
         d="M6 2 l-4,4"
         stroke="#000000"
         stroke-width="0.25"
         linecap="square"
         id="path9-4" /><path
         d="M4 0 l-4,4"
         stroke="#000000"
         stroke-width="0.25"
         linecap="square"
         id="path11-7" /></pattern><symbol
       id="*MODEL_SPACE-5" /><symbol
       id="*PAPER_SPACE-8" /><marker
       id="DistanceX-74"
       orient="auto"
       refX="0"
       refY="0"
       style="overflow:visible"><path
         d="M 3,-3 -3,3 M 0,-5 V 5"
         style="stroke:#000000;stroke-width:0.5"
         id="path639" /></marker><pattern
       id="Hatch-1"
       patternUnits="userSpaceOnUse"
       width="8"
       height="8"
       x="0"
       y="0"><path
         d="M8 4 l-4,4"
         stroke="#000000"
         stroke-width="0.25"
         linecap="square"
         id="path642" /><path
         d="M6 2 l-4,4"
         stroke="#000000"
         stroke-width="0.25"
         linecap="square"
         id="path644" /><path
         d="M4 0 l-4,4"
         stroke="#000000"
         stroke-width="0.25"
         linecap="square"
         id="path646" /></pattern><symbol
       id="*MODEL_SPACE-6" /><symbol
       id="*PAPER_SPACE-1" /><marker
       id="DistanceX-2"
       orient="auto"
       refX="0"
       refY="0"
       style="overflow:visible"><path
         d="M 3,-3 -3,3 M 0,-5 V 5"
         style="stroke:#000000;stroke-width:0.5"
         id="path691" /></marker><pattern
       id="Hatch-4"
       patternUnits="userSpaceOnUse"
       width="8"
       height="8"
       x="0"
       y="0"><path
         d="M8 4 l-4,4"
         stroke="#000000"
         stroke-width="0.25"
         linecap="square"
         id="path694" /><path
         d="M6 2 l-4,4"
         stroke="#000000"
         stroke-width="0.25"
         linecap="square"
         id="path696" /><path
         d="M4 0 l-4,4"
         stroke="#000000"
         stroke-width="0.25"
         linecap="square"
         id="path698" /></pattern><symbol
       id="*MODEL_SPACE-58" /><symbol
       id="*PAPER_SPACE-7" /></defs><g
     inkscape:groupmode="layer"
     inkscape:label="0"
     id="g20"><path
       d="m 596.43383,1046.6853 a 7.559055,7.559055 0 0 0 -7.55905,-7.5591 h -30.23622 v 11.3386 h -80.98988 v -11.3386 h -62.09224 v 11.3386 h -80.98987 v -11.3386 h -62.09224 v 11.3386 h -80.98988 v -11.3386 h -48.59392 v 11.3386 A 102.04724,102.04724 0 0 0 40.843281,1152.5121 H 29.504698 v 37.7952 h 11.338583 v 75.5906 H 29.504698 v 75.5905 h 11.338583 v 75.5905 H 29.504698 v 64.252 h 80.989872 v 11.3386 h 80.98988 v -11.3386 h 80.98988 v 11.3386 h 80.98987 v -11.3386 h 80.98988 v 11.3386 h 80.98988 v -11.3386 h 118.78515 v -434.6456 a 7.559055,7.559055 0 0 0 -7.55906,-7.5591 h -11.33858 a 7.559055,7.559055 0 0 0 -7.55905,7.5591 v 213.5433 h -11.33859 z"
       style="fill:none;stroke:#000000"
       id="path18" /><g
       inkscape:label="0"
       id="g310"
       transform="translate(733.10655,-662.69605)"><path
         d="m -553.70079,1557.1654 a 13.228347,13.228347 0 0 0 -26.45669,0 13.228346,13.228346 0 0 0 26.45669,0 z"
         style="fill:none;stroke:#000000"
         id="path18-1" /><path
         d="m -533.03413,1411.6544 a 28.224928,28.224935 0 0 0 -56.44985,0 28.224928,28.224935 0 0 0 56.44985,0 z"
         style="fill:none;stroke:#000000;stroke-width:1.24464"
         id="path20" /><path
         d="M -359.05512,971.33858 H -631.1811 v -92.59842 h 272.12598 z"
         style="fill:none;stroke:#000000"
         id="path24" /><path
         d="M -124.72441,852.34034 H -171.9685 V 791.8679 h 47.24409 z"
         style="fill:none;stroke:#000000"
         id="path26" /><path
         d="m -553.70079,1557.1654 a 13.228347,13.228347 0 0 0 -26.45669,0 13.228346,13.228346 0 0 0 26.45669,0 z"
         style="fill:none;stroke:#000000"
         id="path30" /><path
         style="fill:none;stroke:#000000"
         d="M -538.583,1099.84 H -682.205"
         id="path32" /><path
         style="fill:none;stroke:#000000"
         d="M -179.528,1213.23 H -500.787"
         id="path34" /><path
         style="fill:none;stroke:#000000"
         d="m -359.055,1071.56 h -321.26"
         id="path36" /><path
         style="fill:none;stroke:#000000"
         d="M 1.88976,1145.2 H -141.732"
         id="path38" /><path
         style="fill:none;stroke:#000000"
         d="M 1.88976,1099.84 H -141.732"
         id="path40" /><path
         style="fill:none;stroke:#000000"
         d="M 0,1184.95 H -321.26"
         id="path42" /><path
         style="fill:none;stroke:#000000"
         d="M 1.88976,1224.57 H -141.732"
         id="path44" /><path
         style="fill:none;stroke:#000000"
         d="M 1.88976,1190.55 H -141.732"
         id="path46" /><path
         style="fill:none;stroke:#000000"
         d="M 0,1207.62 H -321.26"
         id="path48" /><path
         style="fill:none;stroke:#000000"
         d="M 1.88976,1122.52 H -141.732"
         id="path50" /><path
         style="fill:none;stroke:#000000"
         d="M 0,1150.93 H -321.26"
         id="path52" /><path
         style="fill:none;stroke:#000000"
         d="M 0,1162.27 H -321.26"
         id="path54" /><path
         style="fill:none;stroke:#000000"
         d="M -179.528,1088.5 H -500.787"
         id="path56" /><path
         style="fill:none;stroke:#000000"
         d="M 0,1230.3 H -321.26"
         id="path58" /><path
         style="fill:none;stroke:#000000"
         d="M 1.88976,1235.91 H -141.732"
         id="path60" /><path
         style="fill:none;stroke:#000000"
         d="M 0,1139.59 H -321.26"
         id="path62" /><path
         style="fill:none;stroke:#000000"
         d="M 0,1094.24 H -321.26"
         id="path64" /><path
         style="fill:none;stroke:#000000"
         d="M 1.88976,1201.89 H -141.732"
         id="path66" /><path
         style="fill:none;stroke:#000000"
         d="M 0,1116.92 H -321.26"
         id="path68" /><path
         style="fill:none;stroke:#000000"
         d="M 1.88976,1179.21 H -141.732"
         id="path70" /><path
         style="fill:none;stroke:#000000"
         d="M -179.528,1145.2 H -500.787"
         id="path72" /><path
         style="fill:none;stroke:#000000"
         d="M -179.528,1133.86 H -500.787"
         id="path74" /><path
         style="fill:none;stroke:#000000"
         d="M -179.528,1122.52 H -500.787"
         id="path76" /><path
         style="fill:none;stroke:#000000"
         d="M -179.528,1167.87 H -500.787"
         id="path78" /><path
         style="fill:none;stroke:#000000"
         d="M -179.528,1067.77 H -500.787"
         id="path80" /><path
         style="fill:none;stroke:#000000"
         d="M -179.528,1156.54 H -500.787"
         id="path82" /><path
         style="fill:none;stroke:#000000"
         d="M -179.528,1077.17 H -500.787"
         id="path84" /><path
         style="fill:none;stroke:#000000"
         d="M -179.528,1179.21 H -500.787"
         id="path86" /><path
         style="fill:none;stroke:#000000"
         d="M -179.528,1111.18 H -500.787"
         id="path88" /><path
         style="fill:none;stroke:#000000"
         d="M -538.583,1077.17 H -682.205"
         id="path90" /><path
         style="fill:none;stroke:#000000"
         d="M -538.583,1133.86 H -682.205"
         id="path92" /><path
         style="fill:none;stroke:#000000"
         d="M -538.583,1235.91 H -682.205"
         id="path94" /><path
         style="fill:none;stroke:#000000"
         d="M -538.583,1213.23 H -682.205"
         id="path96" /><path
         style="fill:none;stroke:#000000"
         d="M -538.583,1067.77 H -682.205"
         id="path98" /><path
         style="fill:none;stroke:#000000"
         d="M -538.583,1145.2 H -682.205"
         id="path100" /><path
         style="fill:none;stroke:#000000"
         d="M -538.583,1201.89 H -682.205"
         id="path102" /><path
         style="fill:none;stroke:#000000"
         d="M -538.583,1179.21 H -682.205"
         id="path104" /><path
         style="fill:none;stroke:#000000"
         d="M -179.528,1190.55 H -500.787"
         id="path106" /><path
         style="fill:none;stroke:#000000"
         d="M -538.583,1190.55 H -682.205"
         id="path108" /><path
         style="fill:none;stroke:#000000"
         d="m -359.055,1082.9 h -321.26"
         id="path110" /><path
         style="fill:none;stroke:#000000"
         d="M 1.88976,1077.17 H -141.732"
         id="path112" /><path
         style="fill:none;stroke:#000000"
         d="M -179.528,1201.89 H -500.787"
         id="path114" /><path
         style="fill:none;stroke:#000000"
         d="M -179.528,1224.57 H -500.787"
         id="path116" /><path
         style="fill:none;stroke:#000000"
         d="M -179.528,1099.84 H -500.787"
         id="path118" /><path
         style="fill:none;stroke:#000000"
         d="M -538.583,1111.18 H -682.205"
         id="path120" /><path
         style="fill:none;stroke:#000000"
         d="m -359.055,1116.92 h -321.26"
         id="path122" /><path
         style="fill:none;stroke:#000000"
         d="m -359.055,1105.58 h -321.26"
         id="path124" /><path
         style="fill:none;stroke:#000000"
         d="M -538.583,1167.87 H -682.205"
         id="path126" /><path
         style="fill:none;stroke:#000000"
         d="m -359.055,1139.59 h -321.26"
         id="path128" /><path
         style="fill:none;stroke:#000000"
         d="m -359.055,1196.29 h -321.26"
         id="path130" /><path
         style="fill:none;stroke:#000000"
         d="m -359.055,1184.95 h -321.26"
         id="path132" /><path
         style="fill:none;stroke:#000000"
         d="m -359.055,1230.3 h -321.26"
         id="path134" /><path
         style="fill:none;stroke:#000000"
         d="m -359.055,1162.27 h -321.26"
         id="path136" /><path
         style="fill:none;stroke:#000000"
         d="m -359.055,1150.93 h -321.26"
         id="path138" /><path
         style="fill:none;stroke:#000000"
         d="M -538.583,1088.5 H -682.205"
         id="path140" /><path
         style="fill:none;stroke:#000000"
         d="m -359.055,1094.24 h -321.26"
         id="path142" /><path
         style="fill:none;stroke:#000000"
         d="m -359.055,1128.25 h -321.26"
         id="path144" /><path
         style="fill:none;stroke:#000000"
         d="m -359.055,1218.96 h -321.26"
         id="path146" /><path
         style="fill:none;stroke:#000000"
         d="M 0,1218.96 H -321.26"
         id="path148" /><path
         style="fill:none;stroke:#000000"
         d="M 1.88976,1088.5 H -141.732"
         id="path150" /><path
         style="fill:none;stroke:#000000"
         d="M 0,1082.9 H -321.26"
         id="path152" /><path
         style="fill:none;stroke:#000000"
         d="M 1.88976,1133.86 H -141.732"
         id="path154" /><path
         style="fill:none;stroke:#000000"
         d="M 0,1071.56 H -321.26"
         id="path156" /><path
         style="fill:none;stroke:#000000"
         d="M 1.88976,1067.77 H -141.732"
         id="path158" /><path
         style="fill:none;stroke:#000000"
         d="M 1.88976,1167.87 H -141.732"
         id="path160" /><path
         style="fill:none;stroke:#000000"
         d="M 1.88976,1213.23 H -141.732"
         id="path162" /><path
         style="fill:none;stroke:#000000"
         d="M -538.583,1122.52 H -682.205"
         id="path164" /><path
         style="fill:none;stroke:#000000"
         d="M -538.583,1156.54 H -682.205"
         id="path166" /><path
         style="fill:none;stroke:#000000"
         d="m -359.055,1173.61 h -321.26"
         id="path168" /><path
         style="fill:none;stroke:#000000"
         d="M -538.583,1224.57 H -682.205"
         id="path170" /><path
         style="fill:none;stroke:#000000"
         d="m -359.055,1207.62 h -321.26"
         id="path172" /><path
         style="fill:none;stroke:#000000"
         d="M 0,1105.58 H -321.26"
         id="path174" /><path
         style="fill:none;stroke:#000000"
         d="M -179.528,1235.91 H -500.787"
         id="path176" /><path
         style="fill:none;stroke:#000000"
         d="M 0,1196.29 H -321.26"
         id="path178" /><path
         style="fill:none;stroke:#000000"
         d="M 0,1128.25 H -321.26"
         id="path180" /><path
         style="fill:none;stroke:#000000"
         d="M 1.88976,1156.54 H -141.732"
         id="path182" /><path
         style="fill:none;stroke:#000000"
         d="M 1.88976,1111.18 H -141.732"
         id="path184" /><path
         style="fill:none;stroke:#000000"
         d="M 0,1173.61 H -321.26"
         id="path186" /><path
         style="fill:none;stroke:#000000"
         d="m -11.3386,1235.91 v 48.59"
         id="path188" /><path
         style="fill:none;stroke:#000000"
         d="M -11.3386,1284.5 H 0"
         id="path190" /><path
         style="fill:none;stroke:#000000"
         d="m 0,1284.5 v 80.99"
         id="path192" /><path
         style="fill:none;stroke:#000000"
         d="M 0,1365.49 H -11.3386"
         id="path194" /><path
         style="fill:none;stroke:#000000"
         d="m -11.3386,1365.49 v 62.09"
         id="path196" /><path
         style="fill:none;stroke:#000000"
         d="M -11.3386,1427.58 H 0"
         id="path198" /><path
         style="fill:none;stroke:#000000"
         d="m 0,1427.58 v 80.99"
         id="path200" /><path
         style="fill:none;stroke:#000000"
         d="M 0,1508.57 H -11.3386"
         id="path202" /><path
         style="fill:none;stroke:#000000"
         d="m -11.3386,1508.57 v 62.09"
         id="path204" /><path
         style="fill:none;stroke:#000000"
         d="M -11.3386,1570.66 H 0"
         id="path206" /><path
         style="fill:none;stroke:#000000"
         d="m 0,1570.66 v 80.99"
         id="path208" /><path
         style="fill:none;stroke:#000000"
         d="M 0,1651.65 H -11.3386"
         id="path210" /><path
         style="fill:none;stroke:#000000"
         d="m -11.3386,1651.65 v 37.8"
         id="path212" /><path
         style="fill:none;stroke:#000000"
         d="M -11.3386,1689.45 H -668.976"
         id="path214" /><path
         style="fill:none;stroke:#000000"
         d="m -668.976,1689.45 v -37.8"
         id="path216" /><path
         style="fill:none;stroke:#000000"
         d="m -668.976,1651.65 h -11.339"
         id="path218" /><path
         style="fill:none;stroke:#000000"
         d="m -680.315,1651.65 v -80.99"
         id="path220" /><path
         style="fill:none;stroke:#000000"
         d="m -680.315,1570.66 h 11.339"
         id="path222" /><path
         style="fill:none;stroke:#000000"
         d="m -668.976,1570.66 v -62.09"
         id="path224" /><path
         style="fill:none;stroke:#000000"
         d="m -668.976,1508.57 h -11.339"
         id="path226" /><path
         style="fill:none;stroke:#000000"
         d="m -680.315,1508.57 v -80.99"
         id="path228" /><path
         style="fill:none;stroke:#000000"
         d="m -680.315,1427.58 h 11.339"
         id="path230" /><path
         style="fill:none;stroke:#000000"
         d="m -668.976,1427.58 v -62.09"
         id="path232" /><path
         style="fill:none;stroke:#000000"
         d="m -668.976,1365.49 h -11.339"
         id="path234" /><path
         style="fill:none;stroke:#000000"
         d="M -680.315,1365.49 V 1284.5"
         id="path236" /><path
         style="fill:none;stroke:#000000"
         d="m -680.315,1284.5 h 11.339"
         id="path238" /><path
         style="fill:none;stroke:#000000"
         d="m -668.976,1284.5 v -48.59"
         id="path240" /><path
         style="fill:none;stroke:#000000"
         d="m -668.976,1235.91 h -11.339"
         id="path242" /><path
         style="fill:none;stroke:#000000"
         d="M -680.315,1235.91 V 1067.77"
         id="path244" /><path
         style="fill:none;stroke:#000000"
         d="m -668.976,1067.77 v -37.79"
         id="path246" /><path
         style="fill:none;stroke:#000000"
         d="m -668.976,1029.98 h -11.339"
         id="path248" /><path
         style="fill:none;stroke:#000000"
         d="M -680.315,1029.98 V 954.388"
         id="path250" /><path
         style="fill:none;stroke:#000000"
         d="m -680.315,954.388 h 11.339"
         id="path252" /><path
         style="fill:none;stroke:#000000"
         d="M -668.976,954.388 V 878.797"
         id="path254" /><path
         style="fill:none;stroke:#000000"
         d="m -668.976,878.797 h -11.339"
         id="path256" /><path
         style="fill:none;stroke:#000000"
         d="M -680.315,878.797 V 803.206"
         id="path258" /><path
         style="fill:none;stroke:#000000"
         d="m -668.976,738.955 v 64.251"
         id="path260" /><path
         style="fill:none;stroke:#000000"
         d="m -680.315,803.206 h 11.339"
         id="path262" /><path
         style="fill:none;stroke:#000000"
         d="m -668.976,738.955 h 85.849"
         id="path264" /><path
         style="fill:none;stroke:#000000"
         d="M -583.127,738.955 V 727.616"
         id="path266" /><path
         style="fill:none;stroke:#000000"
         d="m -583.127,727.616 h 97.188"
         id="path268" /><path
         style="fill:none;stroke:#000000"
         d="m -485.939,727.616 v 11.339"
         id="path270" /><path
         style="fill:none;stroke:#000000"
         d="m -485.939,738.955 h 97.188"
         id="path272" /><path
         style="fill:none;stroke:#000000"
         d="M -388.751,738.955 V 727.616"
         id="path274" /><path
         style="fill:none;stroke:#000000"
         d="m -388.751,727.616 h 97.187"
         id="path276" /><path
         style="fill:none;stroke:#000000"
         d="m -291.564,727.616 v 11.339"
         id="path278" /><path
         style="fill:none;stroke:#000000"
         d="m -291.564,738.955 h 97.188"
         id="path280" /><path
         style="fill:none;stroke:#000000"
         d="M -194.376,738.955 V 727.616"
         id="path282" /><path
         style="fill:none;stroke:#000000"
         d="M -97.1879,738.955 V 727.616"
         id="path284" /><path
         style="fill:none;stroke:#000000"
         d="m -194.376,727.616 h 97.1881"
         id="path286" /><path
         style="fill:none;stroke:#000000"
         d="m -97.1879,738.955 h 85.8493"
         id="path288" /><path
         style="fill:none;stroke:#000000"
         d="m -11.3386,738.955 v 64.251"
         id="path290" /><path
         style="fill:none;stroke:#000000"
         d="M -11.3386,803.206 H 0"
         id="path292" /><path
         style="fill:none;stroke:#000000"
         d="m 0,803.206 v 75.591"
         id="path294" /><path
         style="fill:none;stroke:#000000"
         d="M 0,878.797 H -11.3386"
         id="path296" /><path
         style="fill:none;stroke:#000000"
         d="m -11.3386,878.797 v 75.591"
         id="path298" /><path
         style="fill:none;stroke:#000000"
         d="M -11.3386,954.388 H 0"
         id="path300" /><path
         style="fill:none;stroke:#000000"
         d="m 0,954.388 v 75.592"
         id="path302" /><path
         style="fill:none;stroke:#000000"
         d="M 0,1029.98 H -11.3386"
         id="path304" /><path
         style="fill:none;stroke:#000000"
         d="m -11.3386,1029.98 v 37.79"
         id="path306" /><path
         style="fill:none;stroke:#000000"
         d="m 0,1067.77 v 168.14"
         id="path308" /></g><path
       d="m 760.17269,1369.1294 h -11.33858 v 118.7852 h 680.31499 v -118.7852 h -11.3386 v -80.9898 h 11.3386 v -80.9899 h -11.3386 v -80.9899 h 11.3386 v -80.9899 h -11.3386 v -80.98979 h 11.3386 v -80.9899 h -97.1879 v 11.3386 h -97.1878 v -11.3386 h -97.1879 v 11.3386 h -97.1878 v -11.3386 h -97.18789 v 11.3386 h -97.18785 v -11.3386 h -97.18785 v 80.9899 h 11.33858 v 80.98979 h -11.33858 v 80.9899 h 11.33858 v 80.9899 h -11.33858 v 80.9899 h 11.33858 z"
       style="fill:none;stroke:#000000"
       id="path653" /><path
       d="m 1445.2425,857.28213 a 7.559055,7.559055 0 0 0 7.5591,7.5591 h 3.7795 a 7.559055,7.559055 0 0 0 7.5591,-7.5591 V 430.19556 a 7.559055,7.559055 0 0 0 -7.5591,-7.55905 H 753.589 a 7.559055,7.559055 0 0 0 -7.55906,7.55905 v 427.08657 a 7.559055,7.559055 0 0 0 7.55906,7.5591 h 3.77952 a 7.559055,7.559055 0 0 0 7.55906,-7.5591 V 643.73887 h 11.33858 v 213.54326 a 7.559055,7.559055 0 0 0 7.55906,7.5591 h 642.51968 a 7.559055,7.559055 0 0 0 7.559,-7.5591 V 643.73887 h 11.3386 z"
       style="fill:none;stroke:#000000"
       id="path705" /></g></svg>
