<?xml version="1.0" encoding="UTF-8" standalone="no"?>
<!-- Created with Inkscape (http://www.inkscape.org/) -->

<svg
   width="594mm"
   height="841mm"
   viewBox="0 0 594 841"
   version="1.1"
   id="svg5"
   xml:space="preserve"
   inkscape:version="1.2.1 (9c6d41e410, 2022-07-14)"
   sodipodi:docname="laptop.svg"
   xmlns:inkscape="http://www.inkscape.org/namespaces/inkscape"
   xmlns:sodipodi="http://sodipodi.sourceforge.net/DTD/sodipodi-0.dtd"
   xmlns="http://www.w3.org/2000/svg"
   xmlns:svg="http://www.w3.org/2000/svg"><sodipodi:namedview
     id="namedview7"
     pagecolor="#ffffff"
     bordercolor="#000000"
     borderopacity="0.25"
     inkscape:showpageshadow="2"
     inkscape:pageopacity="0.0"
     inkscape:pagecheckerboard="0"
     inkscape:deskcolor="#d1d1d1"
     inkscape:document-units="mm"
     showgrid="false"
     inkscape:zoom="0.26362494"
     inkscape:cx="821.24247"
     inkscape:cy="990.04289"
     inkscape:window-width="1920"
     inkscape:window-height="1017"
     inkscape:window-x="-8"
     inkscape:window-y="-8"
     inkscape:window-maximized="1"
     inkscape:current-layer="layer1" /><defs
     id="defs2"><marker
       id="DistanceX"
       orient="auto"
       refX="0"
       refY="0"
       style="overflow:visible"><path
         d="M 3,-3 -3,3 M 0,-5 V 5"
         style="stroke:#000000;stroke-width:0.5"
         id="path134" /></marker><pattern
       id="Hatch"
       patternUnits="userSpaceOnUse"
       width="8"
       height="8"
       x="0"
       y="0"><path
         d="M8 4 l-4,4"
         stroke="#000000"
         stroke-width="0.25"
         linecap="square"
         id="path137" /><path
         d="M6 2 l-4,4"
         stroke="#000000"
         stroke-width="0.25"
         linecap="square"
         id="path139" /><path
         d="M4 0 l-4,4"
         stroke="#000000"
         stroke-width="0.25"
         linecap="square"
         id="path141" /></pattern><symbol
       id="*MODEL_SPACE" /><symbol
       id="*PAPER_SPACE" /><marker
       id="DistanceX-4"
       orient="auto"
       refX="0"
       refY="0"
       style="overflow:visible"><path
         d="M 3,-3 -3,3 M 0,-5 V 5"
         style="stroke:#000000;stroke-width:0.5"
         id="path204" /></marker><pattern
       id="Hatch-0"
       patternUnits="userSpaceOnUse"
       width="8"
       height="8"
       x="0"
       y="0"><path
         d="M8 4 l-4,4"
         stroke="#000000"
         stroke-width="0.25"
         linecap="square"
         id="path207" /><path
         d="M6 2 l-4,4"
         stroke="#000000"
         stroke-width="0.25"
         linecap="square"
         id="path209" /><path
         d="M4 0 l-4,4"
         stroke="#000000"
         stroke-width="0.25"
         linecap="square"
         id="path211" /></pattern><symbol
       id="*MODEL_SPACE-8" /><symbol
       id="*PAPER_SPACE-1" /><marker
       id="DistanceX-3"
       orient="auto"
       refX="0"
       refY="0"
       style="overflow:visible"><path
         d="M 3,-3 -3,3 M 0,-5 V 5"
         style="stroke:#000000;stroke-width:0.5"
         id="path250" /></marker><pattern
       id="Hatch-4"
       patternUnits="userSpaceOnUse"
       width="8"
       height="8"
       x="0"
       y="0"><path
         d="M8 4 l-4,4"
         stroke="#000000"
         stroke-width="0.25"
         linecap="square"
         id="path253" /><path
         d="M6 2 l-4,4"
         stroke="#000000"
         stroke-width="0.25"
         linecap="square"
         id="path255" /><path
         d="M4 0 l-4,4"
         stroke="#000000"
         stroke-width="0.25"
         linecap="square"
         id="path257" /></pattern><symbol
       id="*MODEL_SPACE-1" /><symbol
       id="*PAPER_SPACE-8" /></defs><g
     inkscape:label="Layer 1"
     inkscape:groupmode="layer"
     id="layer1"><g
       inkscape:label="0"
       id="g170"
       transform="matrix(0.26458333,0,0,0.26458333,291.12903,-48.491993)"><path
         d="m -415.74803,874.19396 h -37.79528 V 315.80904 h 37.79528 z"
         style="fill:none;stroke:#000000"
         id="path148" /><path
         d="m -869.29134,874.19396 h -37.79527 V 315.80904 h 37.79527 z"
         style="fill:none;stroke:#000000"
         id="path150" /><path
         d="m -264.56693,874.19396 h -37.79528 V 315.80904 h 37.79528 z"
         style="fill:none;stroke:#000000"
         id="path152" /><path
         d="m -566.92913,874.19396 h -37.79528 V 315.80904 h 37.79528 z"
         style="fill:none;stroke:#000000"
         id="path154" /><path
         d="m -718.11024,315.80904 v 558.38492 h -37.79527 V 315.80904 Z"
         style="fill:none;stroke:#000000"
         id="path156" /><path
         d="M -113.38583,874.19396 H -151.1811 V 315.80904 h 37.79527 z"
         style="fill:none;stroke:#000000"
         id="path158" /><path
         d="m 0,779.70577 h 22.677165 v 94.48819 H 0 Z"
         style="fill:none;stroke:#000000"
         id="path160" /><path
         d="M 22.677165,410.29723 H 0 v -94.48819 h 22.677165 z"
         style="fill:none;stroke:#000000"
         id="path162" /><path
         d="m -1043.1496,874.19396 v -94.48819 h 22.6772 v 94.48819 z"
         style="fill:none;stroke:#000000"
         id="path164" /><path
         d="m -1020.4724,315.80904 v 94.48819 h -22.6772 v -94.48819 z"
         style="fill:none;stroke:#000000"
         id="path166" /><path
         d="M 52.913386,221.32085 A 18.897638,18.897638 0 0 0 34.015748,202.42321 H -1054.4882 a 18.897638,18.897638 0 0 0 -18.8976,18.89764 v 747.36129 a 18.897638,18.897638 0 0 0 18.8976,18.89764 H 34.015748 a 18.897638,18.897638 0 0 0 18.897638,-18.89764 z"
         style="fill:none;stroke:#000000"
         id="path168" /></g><path
       d="m 239.93548,217.06453 a 5.0000001,5.0000001 0 0 0 -4.99999,4.99999 v 24.99999 h 297.99999 v -24.99999 a 5.0000001,5.0000001 0 0 0 -5,-4.99999 h -3 v 15 h -6 v -15 h -270 v 15 h -6.00001 v -15 z"
       style="fill:none;stroke:#000000;stroke-width:0.264583"
       id="path218" /><path
       d="m 241.396,250.9634 a 5.0000001,5.0000001 0 0 0 -4.99999,4.99999 v 24.99999 H 534.396 v -24.99999 a 5.0000001,5.0000001 0 0 0 -5,-4.99999 h -3 v 15 h -6 v -15 h -270 v 15 h -6.00001 v -15 z"
       style="fill:none;stroke:#000000;stroke-width:0.264583"
       id="path218-3" /><path
       d="m 7.7903223,354.36015 a 5.0000001,5.0000001 0 0 0 4.9999997,5.00001 h 37 v -14.99999 h 6 v 14.99999 H 184.79033 v -14.99999 h 5.99999 v 14.99999 h 37 a 5.0000001,5.0000001 0 0 0 5,-5.00001 V 307.7327 a 5.0000001,5.0000001 0 0 0 -3.12696,-4.63592 l -6.23712,-2.51996 a 5.0000001,5.0000001 0 0 0 -6.50895,2.76289 l -7.63583,18.89936 -27.81552,-11.2382 2.24764,-5.5631 -23.1796,-9.36517 -2.24764,5.56311 -90.622338,-36.61381 2.24764,-5.5631 -23.1796,-9.36516 -2.24764,5.5631 -27.81551,-11.2382 2.24764,-5.5631 -4.25318,-1.71839 a 5.0000001,5.0000001 0 0 0 -6.8730297,4.63591 z"
       style="fill:none;stroke:#000000;stroke-width:0.264583"
       id="path264" /><path
       d="m 7.4354791,481.3924 a 5.0000001,5.0000001 0 0 0 4.9999999,5.00001 h 37 v -14.99999 h 6 v 14.99999 H 184.43549 v -14.99999 h 5.99999 v 14.99999 h 37 a 5.0000001,5.0000001 0 0 0 5,-5.00001 v -46.62745 a 5.0000001,5.0000001 0 0 0 -3.12696,-4.63592 l -6.23712,-2.51996 a 5.0000001,5.0000001 0 0 0 -6.50895,2.76289 l -7.63583,18.89936 -27.81552,-11.2382 2.24764,-5.5631 -23.1796,-9.36517 -2.24764,5.56311 -90.622341,-36.61381 2.24764,-5.5631 -23.1796,-9.36516 -2.24764,5.5631 -27.81551,-11.2382 2.24764,-5.5631 -4.25318,-1.71839 a 5.0000001,5.0000001 0 0 0 -6.8730299,4.63591 z"
       style="fill:none;stroke:#000000;stroke-width:0.264583"
       id="path264-3" /></g></svg>
